<?xml version="1.0" encoding="UTF-8"?>
<svg id="OBJECTS" xmlns="http://www.w3.org/2000/svg" viewBox="0 0 322.77 185.38">
  <defs>
    <style>
      .cls-1 {
        fill: #37bcb2;
      }

      .cls-1, .cls-2, .cls-3 {
        stroke-width: 0px;
      }

      .cls-2 {
        fill: #2acddd;
      }

      .cls-3 {
        fill: #94f7ff;
      }
    </style>
  </defs>
  <path class="cls-1" d="m.11,97.33c8,29.33,63.73,69.24,119.33,42.67,63.33-30.27,124.67-68,178.67-15.85,0,0-49-26.82-117.33,15.85-61.2,38.21-102,58.67-143.33,34C-3.89,149.33.11,97.33.11,97.33Z"/>
  <path class="cls-3" d="m.11,97.33c8,29.33,45.61,89.55,118,57.88,64.31-28.14,122.95-75.33,180-31.06,0,0-49-26.82-117.33,15.85-61.2,38.21-102,58.67-143.33,34C-3.89,149.33.11,97.33.11,97.33Z"/>
  <path class="cls-1" d="m118.11,182c58-9,107.33-95.33,204.67-36.67,0,0-30.83-9.5-66.92.25-31.79,8.59-61.8,32.97-105.97,39.17-16.89,2.37-31.78-2.76-31.78-2.76Z"/>
  <g>
    <path class="cls-2" d="m126.66,48.67c-19.28-.82-44.66,20.73-44.66,20.73,4.73-14.1,18.49-20.83,18.49-20.83-10.84.25-25.2,6.95-25.2,6.95,6.02-7.03,11.8-8.56,11.8-8.56-12.15-.97-29.02,6.43-29.02,6.43,40.72-33.9,62.3-16.36,69.31-7.97-8.37-14.67-30.12-29.29-30.12-29.29,7.04,1.28,16.59,5.87,16.59,5.87-1.48-4.99-6.58-12.59-6.58-12.59,5.73,2,9.66,5.76,9.66,5.76-.82-3.02-2.55-6.41-4.4-9.48-32.19,10.28-58.48,33.76-72.48,64.09-12.41,26.49,11.31,62.02,52.41,59.89,2.33-49.48,23.65-72.55,34.21-80.99Z"/>
    <path class="cls-2" d="m149.05,0c-11.07,0-21.78,1.52-31.96,4.32,14.46,13.75,14.47,31.37,13.35,40.07,4.27-6,15.79-17.74,37.7-11.65,0,0-7.88.19-14.62,4.02,0,0,5.04,0,10.31,2.34,0,0-15.69.26-28.72,5.31,11.09-2.81,30.17-3.25,38.6,22.84,0,0-3.13-3.64-8.35-6.48,0,0,4.43,8.85,4.62,14.76,0,0-9.55-14.66-15.42-18.04,0,0,1.28,2.97,2.26,6.86,0,0-10.42-11.84-23.85-15.74,8.06,4.6,23.82,18.63,15.02,55.71,0,0-2.06-12.84-5.36-18.24,0,0,.21,8.08-3.6,15.57,0,0-1.63-7.84-3.8-12.47,0,0-6.85,16.68-16.14,22.54,0,0,19.01-33.46,10.54-62.11-23.81,23.29-24.81,58.53-23.18,77.96,4.23-1.03,8.59-2.44,13.08-4.28,51.09-20.9,102.72-44.43,147.21-26.7C255.87,41.53,207.32,0,149.05,0Zm56.77,41.96c7.14-10.5,15.17-10.61,15.17-10.61-9.99,4.44-11.84,17.21-11.84,17.21-16.02-7.91-24.97,1.34-24.97,1.34,6.58-12,21.64-7.95,21.64-7.95Zm10.54,41.42c-16.41-21.8-34.98-15.34-34.98-15.34,17.22-11.84,34.98,4.04,34.98,4.04,16.95-9.42,27.99-4.04,27.99-4.04-16.68-.81-27.99,15.34-27.99,15.34Z"/>
  </g>
</svg>